# xmcd
#
# Track frame offsets:
#	150
#	13989
#	25294
#	40276
#	51905
#	68413
#	84622
#	103066
#	116290
#	126422
#	138785
#	150519
#	162969
#	172602
#	186600
#	198680
#	215453
#	227382
#	242324
#	257605
#
# Disc length: 3607 seconds
#
# Revision: 0
# Processed by: cddbd v1.5.2PL0 Copyright (c) Steve Scherf et al.
# Submitted via: FairStars CD Ripper 1.90
#
DISCID=080e1514
DTITLE=George Jones and Tammy Wynette - Classic Country Duets
DYEAR=2005
DGENRE=Country
TTITLE0=George Jones and Tammy Wynette - Golden Ring
TTITLE1=Merle Haggard and George Jones - No Show Jones
TTITLE2=Johnny Cash and Waylon Jennings - There Ain't No Good Chain Gang
TTITLE3=Patsy Cline and Willie Nelson - Just Out Of Reach
TTITLE4=Tammy Wynette and David Houston - My Elusive Dreams
TTITLE5=Willie Nelson and Merle Haggard - Reasons To Quit
TTITLE6=Willie Nelson and Ray Price - Night Life
TTITLE7=Carl and Pearl Butler - Don't Let Me Cross Over
TTITLE8=Johnny and Tommy Cash - Guess Things Happen That Way
TTITLE9=Ernest Tubb and Loretta Lynn - Thanks A Lot
TTITLE10=Willie Nelson and Faron Young - Hello Walls
TTITLE11=George Jones and Tammy Wynette - Two Story House
TTITLE12=Ernest Tubb, Merle Haggard and Chet Atkins - Walking The Floor Over You
TTITLE13=Willie Nelson and Leon Russell - Heartbreak Hotel
TTITLE14=Ernest Tubb and Willie Nelson - Waltz Across Texas
TTITLE15=Willie Nelson and Ray Price - Don't You Ever Get Tired Of Hurting Me
TTITLE16=Roger and Mary Miller - Husbands And Wives
TTITLE17=Ernest Tubb and Marty Robbins - Rainbow At Midnight
TTITLE18=Charlie Rich and Jane Fricke - On My Knees
TTITLE19=George Jones and Tammy Wynette - Southern California
EXTD=
EXTT0=
EXTT1=
EXTT2=
EXTT3=
EXTT4=
EXTT5=
EXTT6=
EXTT7=
EXTT8=
EXTT9=
EXTT10=
EXTT11=
EXTT12=
EXTT13=
EXTT14=
EXTT15=
EXTT16=
EXTT17=
EXTT18=
EXTT19=
PLAYORDER=
